<?xml version="1.0" encoding="utf-8"?>
<!-- Generator: Adobe Illustrator 27.0.0, SVG Export Plug-In . SVG Version: 6.00 Build 0)  -->
<svg version="1.1" id="Layer_2_00000090257287677356843010000011445844202797306268_"
	 xmlns="http://www.w3.org/2000/svg" xmlns:xlink="http://www.w3.org/1999/xlink" x="0px" y="0px" viewBox="0 0 175 195"
	 style="enable-background:new 0 0 175 195;" xml:space="preserve">
<g id="Layer_1-2">
	<g>
		<path d="M0.1,28.1c0.1-0.2,0.2-0.5,0.3-0.8c0.5-2.6,1.6-4.9,3.3-6.9c2-2.5,4.5-4.3,7.1-6.1c4.7-3.1,9.9-5.1,15.2-6.8
			c5-1.6,10.1-2.7,15.2-3.7c3.5-0.7,7-1.2,10.6-1.6c2.8-0.3,5.6-0.6,8.4-0.7c4.3-0.2,8.6-0.3,13-0.3c4.9,0,9.8,0.3,14.6,0.7
			c4,0.4,8,0.8,12,1.5c7.8,1.4,15.4,3.2,22.8,6.2c1.9,0.8,3.8,1.6,5.5,2.5c3.4,1.8,6.6,3.9,9.3,6.6c1.3,1.3,2.4,2.8,3.3,4.5
			c1,2,1.6,4.1,1.6,6.3c0,6.9,0,13.7,0,20.6c0,0.3,0,0.7,0,1c1,0.3,2,0.5,2.9,0.8c5.1,1.3,10.3,2.6,15.4,3.9
			c2.5,0.6,4.8,1.7,6.8,3.3c4.2,3.4,6.8,7.7,7.4,13.1c0.1,0.9,0.1,1.8,0.1,2.8c0,22.2,0,44.3,0,66.5c0,3.1-0.4,6-1.8,8.8
			c-3.1,6.4-8.2,10-15.1,11c-2.6,0.4-5.1,0.7-7.7,1.1c-2.7,0.4-5.3,0.8-8,1.2c-0.5,0.1-0.6,0.3-0.7,0.7c-1.3,6.2-4,11.6-8.2,16.4
			c-3.5,4-7.7,7-12.4,9.3c-4.2,2.1-8.7,3.2-13.4,3.7c-0.2,0-0.3,0.1-0.5,0.1H35.4c-0.2-0.1-0.4-0.1-0.6-0.1
			c-4.5-0.4-8.9-1.6-13.1-3.6c-4.9-2.4-9.2-5.4-12.8-9.5c-2.5-2.9-4.6-6-6-9.6c-1.3-3.2-2.2-6.5-2.6-10c0-0.4-0.2-0.8-0.3-1.2
			C0.1,115.9,0.1,72,0.1,28.1z M4.7,39.5c-0.1,0-0.1,0-0.2,0.1v1.1c0,38.9,0,77.9,0,116.8c0,5.3,1.4,10.3,4,14.9
			c2,3.7,4.8,6.8,8,9.3c6.4,5.1,13.7,7.6,21.8,7.6c21.8,0.1,43.6,0,65.4,0c1.8,0,3.6-0.1,5.4-0.4c7.2-1.1,13.6-4,18.9-9.1
			c2.6-2.5,4.8-5.3,6.4-8.5c2.3-4.5,3.4-9.3,3.4-14.4c0-37,0-74,0-111c0-1.9,0-3.8,0-5.7c0-0.3,0-0.5,0-0.8c-0.1,0-0.1,0-0.2,0
			c-0.2,0.1-0.3,0.3-0.5,0.4c-1.9,2-4.2,3.6-6.6,5c-3.9,2.4-8.1,4.1-12.4,5.6c-3.3,1.2-6.6,2.1-10,2.9c-9.7,2.3-19.6,3.4-29.5,3.8
			c-6.6,0.3-13.2,0.2-19.7-0.3c-5.8-0.4-11.5-1-17.2-2c-6.7-1.2-13.3-2.7-19.6-5.2c-3-1.2-6-2.4-8.9-4c-2.7-1.5-5.4-3.2-7.6-5.4
			C5.4,40.1,5.1,39.8,4.7,39.5L4.7,39.5z M71.2,53.2c4-0.2,8.1-0.3,12.1-0.5c3.2-0.2,6.4-0.5,9.7-0.9c3.8-0.4,7.6-1.1,11.4-1.9
			c5.8-1.3,11.4-2.8,16.9-5c4.1-1.7,8-3.8,11.5-6.6c1.5-1.2,2.8-2.6,3.8-4.2c1.9-3,1.9-6.1,0-9.1c-1-1.6-2.1-3-3.6-4.1
			c-1.4-1.1-2.9-2.2-4.5-3.2c-4.3-2.6-9-4.5-13.8-6c-8.9-2.8-18.1-4.3-27.5-5.2C82,6,76.7,5.8,71.5,5.8c-9.6,0-19.2,0.7-28.7,2.3
			c-6.7,1.2-13.3,2.7-19.6,5.3c-1.6,0.6-3.1,1.3-4.7,2c-2.9,1.4-5.7,3-8.3,5C8.4,21.6,7,23.2,5.8,25c-1.7,2.9-1.7,5.8-0.1,8.7
			c0.7,1.2,1.6,2.2,2.5,3.2c1.8,1.8,3.9,3.2,6,4.5c1.6,1,3.3,1.8,5,2.6c7,3.2,14.4,5,21.9,6.5c5,1,10,1.6,15,2
			C61.2,52.9,66.2,53.1,71.2,53.2L71.2,53.2z M142.3,68.2c1.3,0.4,2.5,0.7,3.8,1.1c6.5,1.7,11,7.3,11,14c0,16.4,0,32.9,0,49.3
			c0,5.3-2.5,9.4-6.9,12.3c-1.8,1.2-3.8,1.8-5.9,2.1c-0.6,0.1-1.3,0.2-2,0.3V159c0.3,0,0.5,0,0.7,0c4.8-0.6,9.6-1.3,14.4-2
			c3.5-0.5,6.6-1.9,9-4.5c2.7-2.9,4.2-6.3,4.2-10.4c0-22.5,0-45.1,0-67.6c0-0.8,0-1.6-0.2-2.3c-1.1-5.9-4.5-9.8-10.2-11.7
			c-1.1-0.4-2.2-0.7-3.3-0.9c-4.6-1.2-9.3-2.3-13.9-3.5c-0.2,0-0.4-0.1-0.7-0.1L142.3,68.2L142.3,68.2z M142.3,142.6
			c1.8-0.1,3.2-0.4,4.4-1c3.9-1.9,6-5,6-9.3c0-16.3,0-32.6,0-49c0-0.1,0-0.3,0-0.4c-0.2-2.8-1.2-5.2-3.3-7.1c-2-1.9-4.5-2.4-7.1-3
			L142.3,142.6L142.3,142.6z"/>
	</g>
</g>
</svg>
