<?xml version="1.0" encoding="UTF-8"?>
<svg id="Layer_2" data-name="Layer 2" xmlns="http://www.w3.org/2000/svg" viewBox="0 0 174.9 192.6">
  <defs>
    <style>
      .cls-1 {
        fill: #cdbf9a;
      }

      .cls-2 {
        fill: #3d231c;
      }
    </style>
  </defs>
  <g id="Layer_2-2" data-name="Layer 2">
    <g id="Layer_colors" data-name="Layer colors">
      <polygon class="cls-2" points="3.15 143.21 140.09 143.74 139.56 152.93 138.84 161.96 134.13 173.5 125.82 181.35 117.51 186.34 107.69 188.1 44.43 188.14 30.88 188.1 19.78 184.21 10.8 175.93 4.92 167.74 2.45 158.59 3.15 143.21"/>
      <path class="cls-1" d="M139.97,145.96H4.53l-.33-110.39s58.59,43.35,135.89,.55"/>
    </g>
    <g id="Layer_1-2" data-name="Layer 1-2">
      <path d="M.1,26.9c.1-.2,.2-.5,.3-.8,.5-2.6,1.6-4.9,3.3-6.9,2-2.5,4.5-4.3,7.1-6.1,4.7-3.1,9.9-5.1,15.2-6.8,5-1.6,10.1-2.7,15.2-3.7,3.5-.7,7-1.2,10.6-1.6,2.8-.3,5.6-.6,8.4-.7,4.3-.2,8.6-.3,13-.3,4.9,0,9.8,.3,14.6,.7,4,.4,8,.8,12,1.5,7.8,1.4,15.4,3.2,22.8,6.2,1.9,.8,3.8,1.6,5.5,2.5,3.4,1.8,6.6,3.9,9.3,6.6,1.3,1.3,2.4,2.8,3.3,4.5,1,2,1.6,4.1,1.6,6.3v21.6c1,.3,2,.5,2.9,.8,5.1,1.3,10.3,2.6,15.4,3.9,2.5,.6,4.8,1.7,6.8,3.3,4.2,3.4,6.8,7.7,7.4,13.1,.1,.9,.1,1.8,.1,2.8v66.5c0,3.1-.4,6-1.8,8.8-3.1,6.4-8.2,10-15.1,11-2.6,.4-5.1,.7-7.7,1.1-2.7,.4-5.3,.8-8,1.2-.5,.1-.6,.3-.7,.7-1.3,6.2-4,11.6-8.2,16.4-3.5,4-7.7,7-12.4,9.3-4.2,2.1-8.7,3.2-13.4,3.7-.2,0-.3,.1-.5,.1H35.4c-.2-.1-.4-.1-.6-.1-4.5-.4-8.9-1.6-13.1-3.6-4.9-2.4-9.2-5.4-12.8-9.5-2.5-2.9-4.6-6-6-9.6-1.3-3.2-2.2-6.5-2.6-10,0-.4-.2-.8-.3-1.2C.1,114.7,.1,70.8,.1,26.9Zm4.6,11.4q-.1,0-.2,.1v117.9c0,5.3,1.4,10.3,4,14.9,2,3.7,4.8,6.8,8,9.3,6.4,5.1,13.7,7.6,21.8,7.6,21.8,.1,43.6,0,65.4,0,1.8,0,3.6-.1,5.4-.4,7.2-1.1,13.6-4,18.9-9.1,2.6-2.5,4.8-5.3,6.4-8.5,2.3-4.5,3.4-9.3,3.4-14.4V38.2h-.2c-.2,.1-.3,.3-.5,.4-1.9,2-4.2,3.6-6.6,5-3.9,2.4-8.1,4.1-12.4,5.6-3.3,1.2-6.6,2.1-10,2.9-9.7,2.3-19.6,3.4-29.5,3.8-6.6,.3-13.2,.2-19.7-.3-5.8-.4-11.5-1-17.2-2-6.7-1.2-13.3-2.7-19.6-5.2-3-1.2-6-2.4-8.9-4-2.7-1.5-5.4-3.2-7.6-5.4-.2-.1-.5-.4-.9-.7h0Zm66.5,13.7c4-.2,8.1-.3,12.1-.5,3.2-.2,6.4-.5,9.7-.9,3.8-.4,7.6-1.1,11.4-1.9,5.8-1.3,11.4-2.8,16.9-5,4.1-1.7,8-3.8,11.5-6.6,1.5-1.2,2.8-2.6,3.8-4.2,1.9-3,1.9-6.1,0-9.1-1-1.6-2.1-3-3.6-4.1-1.4-1.1-2.9-2.2-4.5-3.2-4.3-2.6-9-4.5-13.8-6-8.9-2.8-18.1-4.3-27.5-5.2-5.2-.5-10.5-.7-15.7-.7-9.6,0-19.2,.7-28.7,2.3-6.7,1.2-13.3,2.7-19.6,5.3-1.6,.6-3.1,1.3-4.7,2-2.9,1.4-5.7,3-8.3,5-1.8,1.2-3.2,2.8-4.4,4.6-1.7,2.9-1.7,5.8-.1,8.7,.7,1.2,1.6,2.2,2.5,3.2,1.8,1.8,3.9,3.2,6,4.5,1.6,1,3.3,1.8,5,2.6,7,3.2,14.4,5,21.9,6.5,5,1,10,1.6,15,2,5.1,.4,10.1,.6,15.1,.7h0Zm71.1,15c1.3,.4,2.5,.7,3.8,1.1,6.5,1.7,11,7.3,11,14v49.3c0,5.3-2.5,9.4-6.9,12.3-1.8,1.2-3.8,1.8-5.9,2.1-.6,.1-1.3,.2-2,.3v11.7h.7c4.8-.6,9.6-1.3,14.4-2,3.5-.5,6.6-1.9,9-4.5,2.7-2.9,4.2-6.3,4.2-10.4V73.3c0-.8,0-1.6-.2-2.3-1.1-5.9-4.5-9.8-10.2-11.7-1.1-.4-2.2-.7-3.3-.9-4.6-1.2-9.3-2.3-13.9-3.5-.2,0-.4-.1-.7-.1v12.2h0Zm0,74.4c1.8-.1,3.2-.4,4.4-1,3.9-1.9,6-5,6-9.3v-49.4c-.2-2.8-1.2-5.2-3.3-7.1-2-1.9-4.5-2.4-7.1-3v69.8h0Z"/>
    </g>
  </g>
</svg>