<?xml version="1.0" encoding="UTF-8"?>
<svg id="Layer_2" data-name="Layer 2" xmlns="http://www.w3.org/2000/svg" viewBox="0 0 124.23 141.85">
  <defs>
    <style>
      .cls-1 {
        fill: #c1c1c1;
      }

      .cls-2 {
        fill: #cdbf9a;
      }

      .cls-3 {
        fill: #3d231c;
      }
    </style>
  </defs>
  <g id="Layer_colors">
    <polygon class="cls-3" points=".8 101.35 124.23 101.83 123.76 110.11 123.11 118.25 118.86 128.65 111.37 135.73 103.88 140.22 95.03 141.81 38.01 141.85 25.8 141.81 15.79 138.3 7.7 130.84 2.41 123.46 .17 115.21 .8 101.35"/>
    <polyline class="cls-2" points="124.23 101.83 .8 101.35 0 32.24 124.06 32.24"/>
    <path class="cls-1" d="M124.23,46L.2,45.18,.17,0S5.99,12.31,30.85,17.84c17.05,3.79,50.6,2.83,68.13-1.85C117.13,11.15,124.23,.67,124.23,.67"/>
  </g>
</svg>